<svg id="visual" viewBox="0 0 900 600" width="900" height="600" xmlns="http://www.w3.org/2000/svg" xmlns:xlink="http://www.w3.org/1999/xlink" version="1.1"><rect x="0" y="0" width="900" height="600" fill="#001220"></rect><path d="M0 353L15 355C30 357 60 361 90 382.2C120 403.3 150 441.7 180 456.2C210 470.7 240 461.3 270 442C300 422.7 330 393.3 360 381.7C390 370 420 376 450 379.7C480 383.3 510 384.7 540 409.7C570 434.7 600 483.3 630 472C660 460.7 690 389.3 720 365.7C750 342 780 366 810 375C840 384 870 378 885 375L900 372L900 601L885 601C870 601 840 601 810 601C780 601 750 601 720 601C690 601 660 601 630 601C600 601 570 601 540 601C510 601 480 601 450 601C420 601 390 601 360 601C330 601 300 601 270 601C240 601 210 601 180 601C150 601 120 601 90 601C60 601 30 601 15 601L0 601Z" fill="#aaf70f"></path><path d="M0 536L15 533.3C30 530.7 60 525.3 90 510.5C120 495.7 150 471.3 180 444C210 416.7 240 386.3 270 368.7C300 351 330 346 360 348.3C390 350.7 420 360.3 450 386.3C480 412.3 510 454.7 540 461.5C570 468.3 600 439.7 630 424.3C660 409 690 407 720 400.2C750 393.3 780 381.7 810 394.2C840 406.7 870 443.3 885 461.7L900 480L900 601L885 601C870 601 840 601 810 601C780 601 750 601 720 601C690 601 660 601 630 601C600 601 570 601 540 601C510 601 480 601 450 601C420 601 390 601 360 601C330 601 300 601 270 601C240 601 210 601 180 601C150 601 120 601 90 601C60 601 30 601 15 601L0 601Z" fill="#7ff452"></path><path d="M0 411L15 415.8C30 420.7 60 430.3 90 423C120 415.7 150 391.3 180 388C210 384.7 240 402.3 270 414.2C300 426 330 432 360 426.5C390 421 420 404 450 421.2C480 438.3 510 489.7 540 514C570 538.3 600 535.7 630 516.8C660 498 690 463 720 436.8C750 410.7 780 393.3 810 384C840 374.7 870 373.3 885 372.7L900 372L900 601L885 601C870 601 840 601 810 601C780 601 750 601 720 601C690 601 660 601 630 601C600 601 570 601 540 601C510 601 480 601 450 601C420 601 390 601 360 601C330 601 300 601 270 601C240 601 210 601 180 601C150 601 120 601 90 601C60 601 30 601 15 601L0 601Z" fill="#55ee78"></path><path d="M0 549L15 542.2C30 535.3 60 521.7 90 509.8C120 498 150 488 180 479.5C210 471 240 464 270 465.5C300 467 330 477 360 472.7C390 468.3 420 449.7 450 448.7C480 447.7 510 464.3 540 476C570 487.7 600 494.3 630 506.2C660 518 690 535 720 515.8C750 496.7 780 441.3 810 427C840 412.7 870 439.3 885 452.7L900 466L900 601L885 601C870 601 840 601 810 601C780 601 750 601 720 601C690 601 660 601 630 601C600 601 570 601 540 601C510 601 480 601 450 601C420 601 390 601 360 601C330 601 300 601 270 601C240 601 210 601 180 601C150 601 120 601 90 601C60 601 30 601 15 601L0 601Z" fill="#24e796"></path><path d="M0 548L15 541.2C30 534.3 60 520.7 90 512.3C120 504 150 501 180 498.5C210 496 240 494 270 504.2C300 514.3 330 536.7 360 530.5C390 524.3 420 489.7 450 486.7C480 483.7 510 512.3 540 506.3C570 500.3 600 459.7 630 444.2C660 428.7 690 438.3 720 457.7C750 477 780 506 810 520C840 534 870 533 885 532.5L900 532L900 601L885 601C870 601 840 601 810 601C780 601 750 601 720 601C690 601 660 601 630 601C600 601 570 601 540 601C510 601 480 601 450 601C420 601 390 601 360 601C330 601 300 601 270 601C240 601 210 601 180 601C150 601 120 601 90 601C60 601 30 601 15 601L0 601Z" fill="#00dead"></path><path d="M0 439L15 440.2C30 441.3 60 443.7 90 445.3C120 447 150 448 180 453.7C210 459.3 240 469.7 270 476.2C300 482.7 330 485.3 360 484C390 482.7 420 477.3 450 477C480 476.7 510 481.3 540 490C570 498.7 600 511.3 630 502.5C660 493.7 690 463.3 720 453.2C750 443 780 453 810 469.7C840 486.3 870 509.7 885 521.3L900 533L900 601L885 601C870 601 840 601 810 601C780 601 750 601 720 601C690 601 660 601 630 601C600 601 570 601 540 601C510 601 480 601 450 601C420 601 390 601 360 601C330 601 300 601 270 601C240 601 210 601 180 601C150 601 120 601 90 601C60 601 30 601 15 601L0 601Z" fill="#00d4bd"></path><path d="M0 569L15 563.2C30 557.3 60 545.7 90 545.7C120 545.7 150 557.3 180 558.3C210 559.3 240 549.7 270 549C300 548.3 330 556.7 360 553.2C390 549.7 420 534.3 450 522C480 509.7 510 500.3 540 507.8C570 515.3 600 539.7 630 535.2C660 530.7 690 497.3 720 487.5C750 477.7 780 491.3 810 496.7C840 502 870 499 885 497.5L900 496L900 601L885 601C870 601 840 601 810 601C780 601 750 601 720 601C690 601 660 601 630 601C600 601 570 601 540 601C510 601 480 601 450 601C420 601 390 601 360 601C330 601 300 601 270 601C240 601 210 601 180 601C150 601 120 601 90 601C60 601 30 601 15 601L0 601Z" fill="#00c9c7"></path><path d="M0 507L15 505.7C30 504.3 60 501.7 90 511C120 520.3 150 541.7 180 544.2C210 546.7 240 530.3 270 532.5C300 534.7 330 555.3 360 565C390 574.7 420 573.3 450 560.3C480 547.3 510 522.7 540 509.5C570 496.3 600 494.7 630 504.7C660 514.7 690 536.3 720 547.7C750 559 780 560 810 556C840 552 870 543 885 538.5L900 534L900 601L885 601C870 601 840 601 810 601C780 601 750 601 720 601C690 601 660 601 630 601C600 601 570 601 540 601C510 601 480 601 450 601C420 601 390 601 360 601C330 601 300 601 270 601C240 601 210 601 180 601C150 601 120 601 90 601C60 601 30 601 15 601L0 601Z" fill="#00bdcd"></path><path d="M0 517L15 520C30 523 60 529 90 539.7C120 550.3 150 565.7 180 566.5C210 567.3 240 553.7 270 548C300 542.3 330 544.7 360 545.7C390 546.7 420 546.3 450 540.7C480 535 510 524 540 517C570 510 600 507 630 508.5C660 510 690 516 720 517.5C750 519 780 516 810 518.8C840 521.7 870 530.3 885 534.7L900 539L900 601L885 601C870 601 840 601 810 601C780 601 750 601 720 601C690 601 660 601 630 601C600 601 570 601 540 601C510 601 480 601 450 601C420 601 390 601 360 601C330 601 300 601 270 601C240 601 210 601 180 601C150 601 120 601 90 601C60 601 30 601 15 601L0 601Z" fill="#00b1cf"></path><path d="M0 585L15 580.8C30 576.7 60 568.3 90 567C120 565.7 150 571.3 180 571C210 570.7 240 564.3 270 565.8C300 567.3 330 576.7 360 575.5C390 574.3 420 562.7 450 562.7C480 562.7 510 574.3 540 574.8C570 575.3 600 564.7 630 559.7C660 554.7 690 555.3 720 555.5C750 555.7 780 555.3 810 558.5C840 561.7 870 568.3 885 571.7L900 575L900 601L885 601C870 601 840 601 810 601C780 601 750 601 720 601C690 601 660 601 630 601C600 601 570 601 540 601C510 601 480 601 450 601C420 601 390 601 360 601C330 601 300 601 270 601C240 601 210 601 180 601C150 601 120 601 90 601C60 601 30 601 15 601L0 601Z" fill="#00a3cd"></path><path d="M0 576L15 572.3C30 568.7 60 561.3 90 564C120 566.7 150 579.3 180 584.7C210 590 240 588 270 581.7C300 575.3 330 564.7 360 563.5C390 562.3 420 570.7 450 573.8C480 577 510 575 540 572.2C570 569.3 600 565.7 630 564.5C660 563.3 690 564.7 720 568.2C750 571.7 780 577.3 810 580.3C840 583.3 870 583.7 885 583.8L900 584L900 601L885 601C870 601 840 601 810 601C780 601 750 601 720 601C690 601 660 601 630 601C600 601 570 601 540 601C510 601 480 601 450 601C420 601 390 601 360 601C330 601 300 601 270 601C240 601 210 601 180 601C150 601 120 601 90 601C60 601 30 601 15 601L0 601Z" fill="#2496c7"></path></svg>