<svg id="visual" viewBox="0 0 900 600" width="900" height="600" xmlns="http://www.w3.org/2000/svg" xmlns:xlink="http://www.w3.org/1999/xlink" version="1.1"><rect x="0" y="0" width="900" height="600" fill="#001220"></rect><path d="M0 438L15 425.5C30 413 60 388 90 403.5C120 419 150 475 180 491.5C210 508 240 485 270 465.3C300 445.7 330 429.3 360 421.8C390 414.3 420 415.7 450 435.2C480 454.7 510 492.3 540 507C570 521.7 600 513.3 630 508.7C660 504 690 503 720 475.8C750 448.7 780 395.3 810 377.3C840 359.3 870 376.7 885 385.3L900 394L900 601L885 601C870 601 840 601 810 601C780 601 750 601 720 601C690 601 660 601 630 601C600 601 570 601 540 601C510 601 480 601 450 601C420 601 390 601 360 601C330 601 300 601 270 601C240 601 210 601 180 601C150 601 120 601 90 601C60 601 30 601 15 601L0 601Z" fill="#aaf70f"></path><path d="M0 461L15 450.8C30 440.7 60 420.3 90 420.2C120 420 150 440 180 433C210 426 240 392 270 390.2C300 388.3 330 418.7 360 429.5C390 440.3 420 431.7 450 424.3C480 417 510 411 540 408.7C570 406.3 600 407.7 630 427.8C660 448 690 487 720 505.3C750 523.7 780 521.3 810 504.8C840 488.3 870 457.7 885 442.3L900 427L900 601L885 601C870 601 840 601 810 601C780 601 750 601 720 601C690 601 660 601 630 601C600 601 570 601 540 601C510 601 480 601 450 601C420 601 390 601 360 601C330 601 300 601 270 601C240 601 210 601 180 601C150 601 120 601 90 601C60 601 30 601 15 601L0 601Z" fill="#7ff452"></path><path d="M0 378L15 395.8C30 413.7 60 449.3 90 472.3C120 495.3 150 505.7 180 494C210 482.3 240 448.7 270 447C300 445.3 330 475.7 360 488.7C390 501.7 420 497.3 450 501.8C480 506.3 510 519.7 540 502.8C570 486 600 439 630 413.7C660 388.3 690 384.7 720 395C750 405.3 780 429.7 810 439C840 448.3 870 442.7 885 439.8L900 437L900 601L885 601C870 601 840 601 810 601C780 601 750 601 720 601C690 601 660 601 630 601C600 601 570 601 540 601C510 601 480 601 450 601C420 601 390 601 360 601C330 601 300 601 270 601C240 601 210 601 180 601C150 601 120 601 90 601C60 601 30 601 15 601L0 601Z" fill="#55ee78"></path><path d="M0 539L15 516C30 493 60 447 90 449C120 451 150 501 180 516.8C210 532.7 240 514.3 270 510.2C300 506 330 516 360 517.8C390 519.7 420 513.3 450 506.7C480 500 510 493 540 495C570 497 600 508 630 500C660 492 690 465 720 455.3C750 445.7 780 453.3 810 470.8C840 488.3 870 515.7 885 529.3L900 543L900 601L885 601C870 601 840 601 810 601C780 601 750 601 720 601C690 601 660 601 630 601C600 601 570 601 540 601C510 601 480 601 450 601C420 601 390 601 360 601C330 601 300 601 270 601C240 601 210 601 180 601C150 601 120 601 90 601C60 601 30 601 15 601L0 601Z" fill="#24e796"></path><path d="M0 417L15 435C30 453 60 489 90 491.2C120 493.3 150 461.7 180 452.7C210 443.7 240 457.3 270 475.3C300 493.3 330 515.7 360 525.5C390 535.3 420 532.7 450 514.3C480 496 510 462 540 461.2C570 460.3 600 492.7 630 514.7C660 536.7 690 548.3 720 541.7C750 535 780 510 810 488C840 466 870 447 885 437.5L900 428L900 601L885 601C870 601 840 601 810 601C780 601 750 601 720 601C690 601 660 601 630 601C600 601 570 601 540 601C510 601 480 601 450 601C420 601 390 601 360 601C330 601 300 601 270 601C240 601 210 601 180 601C150 601 120 601 90 601C60 601 30 601 15 601L0 601Z" fill="#00dead"></path><path d="M0 476L15 475.8C30 475.7 60 475.3 90 485.5C120 495.7 150 516.3 180 527.5C210 538.7 240 540.3 270 533.2C300 526 330 510 360 509.3C390 508.7 420 523.3 450 523.5C480 523.7 510 509.3 540 511C570 512.7 600 530.3 630 540.5C660 550.7 690 553.3 720 537.8C750 522.3 780 488.7 810 480C840 471.3 870 487.7 885 495.8L900 504L900 601L885 601C870 601 840 601 810 601C780 601 750 601 720 601C690 601 660 601 630 601C600 601 570 601 540 601C510 601 480 601 450 601C420 601 390 601 360 601C330 601 300 601 270 601C240 601 210 601 180 601C150 601 120 601 90 601C60 601 30 601 15 601L0 601Z" fill="#00d4bd"></path><path d="M0 483L15 488.8C30 494.7 60 506.3 90 516.8C120 527.3 150 536.7 180 540.3C210 544 240 542 270 545.3C300 548.7 330 557.3 360 559.3C390 561.3 420 556.7 450 556.5C480 556.3 510 560.7 540 555.8C570 551 600 537 630 519.8C660 502.7 690 482.3 720 473.8C750 465.3 780 468.7 810 487C840 505.3 870 538.7 885 555.3L900 572L900 601L885 601C870 601 840 601 810 601C780 601 750 601 720 601C690 601 660 601 630 601C600 601 570 601 540 601C510 601 480 601 450 601C420 601 390 601 360 601C330 601 300 601 270 601C240 601 210 601 180 601C150 601 120 601 90 601C60 601 30 601 15 601L0 601Z" fill="#00c9c7"></path><path d="M0 560L15 558C30 556 60 552 90 550.5C120 549 150 550 180 538.7C210 527.3 240 503.7 270 498.8C300 494 330 508 360 514.8C390 521.7 420 521.3 450 530.2C480 539 510 557 540 550.8C570 544.7 600 514.3 630 505.3C660 496.3 690 508.7 720 521.5C750 534.3 780 547.7 810 542.8C840 538 870 515 885 503.5L900 492L900 601L885 601C870 601 840 601 810 601C780 601 750 601 720 601C690 601 660 601 630 601C600 601 570 601 540 601C510 601 480 601 450 601C420 601 390 601 360 601C330 601 300 601 270 601C240 601 210 601 180 601C150 601 120 601 90 601C60 601 30 601 15 601L0 601Z" fill="#00bdcd"></path><path d="M0 524L15 530.5C30 537 60 550 90 555.3C120 560.7 150 558.3 180 554.3C210 550.3 240 544.7 270 536.3C300 528 330 517 360 511.3C390 505.7 420 505.3 450 507.3C480 509.3 510 513.7 540 526.2C570 538.7 600 559.3 630 563.5C660 567.7 690 555.3 720 547.7C750 540 780 537 810 537.7C840 538.3 870 542.7 885 544.8L900 547L900 601L885 601C870 601 840 601 810 601C780 601 750 601 720 601C690 601 660 601 630 601C600 601 570 601 540 601C510 601 480 601 450 601C420 601 390 601 360 601C330 601 300 601 270 601C240 601 210 601 180 601C150 601 120 601 90 601C60 601 30 601 15 601L0 601Z" fill="#00b1cf"></path><path d="M0 529L15 528.8C30 528.7 60 528.3 90 536.5C120 544.7 150 561.3 180 561.7C210 562 240 546 270 542.5C300 539 330 548 360 549C390 550 420 543 450 541.5C480 540 510 544 540 550.7C570 557.3 600 566.7 630 569.2C660 571.7 690 567.3 720 560.5C750 553.7 780 544.3 810 547.8C840 551.3 870 567.7 885 575.8L900 584L900 601L885 601C870 601 840 601 810 601C780 601 750 601 720 601C690 601 660 601 630 601C600 601 570 601 540 601C510 601 480 601 450 601C420 601 390 601 360 601C330 601 300 601 270 601C240 601 210 601 180 601C150 601 120 601 90 601C60 601 30 601 15 601L0 601Z" fill="#00a3cd"></path><path d="M0 570L15 567.8C30 565.7 60 561.3 90 562C120 562.7 150 568.3 180 572.5C210 576.7 240 579.3 270 582.5C300 585.7 330 589.3 360 589.7C390 590 420 587 450 583.5C480 580 510 576 540 571C570 566 600 560 630 561.2C660 562.3 690 570.7 720 575.2C750 579.7 780 580.3 810 575.8C840 571.3 870 561.7 885 556.8L900 552L900 601L885 601C870 601 840 601 810 601C780 601 750 601 720 601C690 601 660 601 630 601C600 601 570 601 540 601C510 601 480 601 450 601C420 601 390 601 360 601C330 601 300 601 270 601C240 601 210 601 180 601C150 601 120 601 90 601C60 601 30 601 15 601L0 601Z" fill="#2496c7"></path></svg>