<svg id="visual" viewBox="0 0 900 600" width="900" height="600" xmlns="http://www.w3.org/2000/svg" xmlns:xlink="http://www.w3.org/1999/xlink" version="1.1"><rect x="0" y="0" width="900" height="600" fill="#001220"></rect><path d="M0 478L15 461.2C30 444.3 60 410.7 90 384C120 357.3 150 337.7 180 330C210 322.3 240 326.7 270 336.8C300 347 330 363 360 377.2C390 391.3 420 403.7 450 397.3C480 391 510 366 540 370.2C570 374.3 600 407.7 630 434.7C660 461.7 690 482.3 720 490.5C750 498.7 780 494.3 810 470.5C840 446.7 870 403.3 885 381.7L900 360L900 601L885 601C870 601 840 601 810 601C780 601 750 601 720 601C690 601 660 601 630 601C600 601 570 601 540 601C510 601 480 601 450 601C420 601 390 601 360 601C330 601 300 601 270 601C240 601 210 601 180 601C150 601 120 601 90 601C60 601 30 601 15 601L0 601Z" fill="#aaf70f"></path><path d="M0 345L15 356.2C30 367.3 60 389.7 90 408.8C120 428 150 444 180 434.2C210 424.3 240 388.7 270 401C300 413.3 330 473.7 360 471C390 468.3 420 402.7 450 401.8C480 401 510 465 540 472.5C570 480 600 431 630 409.5C660 388 690 394 720 409.8C750 425.7 780 451.3 810 456.5C840 461.7 870 446.3 885 438.7L900 431L900 601L885 601C870 601 840 601 810 601C780 601 750 601 720 601C690 601 660 601 630 601C600 601 570 601 540 601C510 601 480 601 450 601C420 601 390 601 360 601C330 601 300 601 270 601C240 601 210 601 180 601C150 601 120 601 90 601C60 601 30 601 15 601L0 601Z" fill="#7ff452"></path><path d="M0 419L15 417.3C30 415.7 60 412.3 90 407.5C120 402.7 150 396.3 180 404C210 411.7 240 433.3 270 454.3C300 475.3 330 495.7 360 481C390 466.3 420 416.7 450 420.3C480 424 510 481 540 483.7C570 486.3 600 434.7 630 434C660 433.3 690 483.7 720 508.7C750 533.7 780 533.3 810 535.5C840 537.7 870 542.3 885 544.7L900 547L900 601L885 601C870 601 840 601 810 601C780 601 750 601 720 601C690 601 660 601 630 601C600 601 570 601 540 601C510 601 480 601 450 601C420 601 390 601 360 601C330 601 300 601 270 601C240 601 210 601 180 601C150 601 120 601 90 601C60 601 30 601 15 601L0 601Z" fill="#55ee78"></path><path d="M0 504L15 489.8C30 475.7 60 447.3 90 454.5C120 461.7 150 504.3 180 518.2C210 532 240 517 270 509C300 501 330 500 360 486.5C390 473 420 447 450 443.7C480 440.3 510 459.7 540 481.3C570 503 600 527 630 513.5C660 500 690 449 720 432C750 415 780 432 810 437.7C840 443.3 870 437.7 885 434.8L900 432L900 601L885 601C870 601 840 601 810 601C780 601 750 601 720 601C690 601 660 601 630 601C600 601 570 601 540 601C510 601 480 601 450 601C420 601 390 601 360 601C330 601 300 601 270 601C240 601 210 601 180 601C150 601 120 601 90 601C60 601 30 601 15 601L0 601Z" fill="#24e796"></path><path d="M0 462L15 458.8C30 455.7 60 449.3 90 453.5C120 457.7 150 472.3 180 490C210 507.7 240 528.3 270 519.5C300 510.7 330 472.3 360 458.2C390 444 420 454 450 465.5C480 477 510 490 540 484.7C570 479.3 600 455.7 630 442.7C660 429.7 690 427.3 720 444.7C750 462 780 499 810 508.2C840 517.3 870 498.7 885 489.3L900 480L900 601L885 601C870 601 840 601 810 601C780 601 750 601 720 601C690 601 660 601 630 601C600 601 570 601 540 601C510 601 480 601 450 601C420 601 390 601 360 601C330 601 300 601 270 601C240 601 210 601 180 601C150 601 120 601 90 601C60 601 30 601 15 601L0 601Z" fill="#00dead"></path><path d="M0 438L15 447.3C30 456.7 60 475.3 90 475C120 474.7 150 455.3 180 446.7C210 438 240 440 270 442.5C300 445 330 448 360 454.2C390 460.3 420 469.7 450 486.7C480 503.7 510 528.3 540 522.8C570 517.3 600 481.7 630 468.8C660 456 690 466 720 464.3C750 462.7 780 449.3 810 450C840 450.7 870 465.3 885 472.7L900 480L900 601L885 601C870 601 840 601 810 601C780 601 750 601 720 601C690 601 660 601 630 601C600 601 570 601 540 601C510 601 480 601 450 601C420 601 390 601 360 601C330 601 300 601 270 601C240 601 210 601 180 601C150 601 120 601 90 601C60 601 30 601 15 601L0 601Z" fill="#00d4bd"></path><path d="M0 507L15 512.8C30 518.7 60 530.3 90 534.8C120 539.3 150 536.7 180 524.8C210 513 240 492 270 480.5C300 469 330 467 360 464.8C390 462.7 420 460.3 450 473C480 485.7 510 513.3 540 519C570 524.7 600 508.3 630 499.2C660 490 690 488 720 497.3C750 506.7 780 527.3 810 531.2C840 535 870 522 885 515.5L900 509L900 601L885 601C870 601 840 601 810 601C780 601 750 601 720 601C690 601 660 601 630 601C600 601 570 601 540 601C510 601 480 601 450 601C420 601 390 601 360 601C330 601 300 601 270 601C240 601 210 601 180 601C150 601 120 601 90 601C60 601 30 601 15 601L0 601Z" fill="#00c9c7"></path><path d="M0 541L15 541.2C30 541.3 60 541.7 90 543.8C120 546 150 550 180 541.2C210 532.3 240 510.7 270 505.2C300 499.7 330 510.3 360 511C390 511.7 420 502.3 450 503.2C480 504 510 515 540 521.7C570 528.3 600 530.7 630 527.8C660 525 690 517 720 521.3C750 525.7 780 542.3 810 552.2C840 562 870 565 885 566.5L900 568L900 601L885 601C870 601 840 601 810 601C780 601 750 601 720 601C690 601 660 601 630 601C600 601 570 601 540 601C510 601 480 601 450 601C420 601 390 601 360 601C330 601 300 601 270 601C240 601 210 601 180 601C150 601 120 601 90 601C60 601 30 601 15 601L0 601Z" fill="#00bdcd"></path><path d="M0 522L15 520.3C30 518.7 60 515.3 90 522.3C120 529.3 150 546.7 180 557.3C210 568 240 572 270 565.8C300 559.7 330 543.3 360 541.7C390 540 420 553 450 559.7C480 566.3 510 566.7 540 556.7C570 546.7 600 526.3 630 527.5C660 528.7 690 551.3 720 554.5C750 557.7 780 541.3 810 538.7C840 536 870 547 885 552.5L900 558L900 601L885 601C870 601 840 601 810 601C780 601 750 601 720 601C690 601 660 601 630 601C600 601 570 601 540 601C510 601 480 601 450 601C420 601 390 601 360 601C330 601 300 601 270 601C240 601 210 601 180 601C150 601 120 601 90 601C60 601 30 601 15 601L0 601Z" fill="#00b1cf"></path><path d="M0 551L15 548.2C30 545.3 60 539.7 90 544.3C120 549 150 564 180 572.3C210 580.7 240 582.3 270 577.2C300 572 330 560 360 553.3C390 546.7 420 545.3 450 546.8C480 548.3 510 552.7 540 559.7C570 566.7 600 576.3 630 577C660 577.7 690 569.3 720 566.8C750 564.3 780 567.7 810 571.7C840 575.7 870 580.3 885 582.7L900 585L900 601L885 601C870 601 840 601 810 601C780 601 750 601 720 601C690 601 660 601 630 601C600 601 570 601 540 601C510 601 480 601 450 601C420 601 390 601 360 601C330 601 300 601 270 601C240 601 210 601 180 601C150 601 120 601 90 601C60 601 30 601 15 601L0 601Z" fill="#00a3cd"></path><path d="M0 584L15 583.3C30 582.7 60 581.3 90 577.2C120 573 150 566 180 564.2C210 562.3 240 565.7 270 567C300 568.3 330 567.7 360 570.7C390 573.7 420 580.3 450 581.5C480 582.7 510 578.3 540 577.8C570 577.3 600 580.7 630 582.2C660 583.7 690 583.3 720 583.7C750 584 780 585 810 584.3C840 583.7 870 581.3 885 580.2L900 579L900 601L885 601C870 601 840 601 810 601C780 601 750 601 720 601C690 601 660 601 630 601C600 601 570 601 540 601C510 601 480 601 450 601C420 601 390 601 360 601C330 601 300 601 270 601C240 601 210 601 180 601C150 601 120 601 90 601C60 601 30 601 15 601L0 601Z" fill="#2496c7"></path></svg>