<svg id="visual" viewBox="0 0 900 600" width="900" height="600" xmlns="http://www.w3.org/2000/svg" xmlns:xlink="http://www.w3.org/1999/xlink" version="1.1"><rect x="0" y="0" width="900" height="600" fill="#001220"></rect><path d="M0 455L15 446.3C30 437.7 60 420.3 90 409.2C120 398 150 393 180 406C210 419 240 450 270 451.7C300 453.3 330 425.7 360 410.2C390 394.7 420 391.3 450 400C480 408.7 510 429.3 540 433.5C570 437.7 600 425.3 630 411C660 396.7 690 380.3 720 368.7C750 357 780 350 810 361C840 372 870 401 885 415.5L900 430L900 601L885 601C870 601 840 601 810 601C780 601 750 601 720 601C690 601 660 601 630 601C600 601 570 601 540 601C510 601 480 601 450 601C420 601 390 601 360 601C330 601 300 601 270 601C240 601 210 601 180 601C150 601 120 601 90 601C60 601 30 601 15 601L0 601Z" fill="#aaf70f"></path><path d="M0 371L15 377.5C30 384 60 397 90 407.7C120 418.3 150 426.7 180 422C210 417.3 240 399.7 270 392.3C300 385 330 388 360 382.2C390 376.3 420 361.7 450 379.3C480 397 510 447 540 468.8C570 490.7 600 484.3 630 459.8C660 435.3 690 392.7 720 378.2C750 363.7 780 377.3 810 399.8C840 422.3 870 453.7 885 469.3L900 485L900 601L885 601C870 601 840 601 810 601C780 601 750 601 720 601C690 601 660 601 630 601C600 601 570 601 540 601C510 601 480 601 450 601C420 601 390 601 360 601C330 601 300 601 270 601C240 601 210 601 180 601C150 601 120 601 90 601C60 601 30 601 15 601L0 601Z" fill="#7ff452"></path><path d="M0 445L15 434.2C30 423.3 60 401.7 90 394.5C120 387.3 150 394.7 180 414.7C210 434.7 240 467.3 270 490C300 512.7 330 525.3 360 509.5C390 493.7 420 449.3 450 422.7C480 396 510 387 540 386.8C570 386.7 600 395.3 630 409C660 422.7 690 441.3 720 463.8C750 486.3 780 512.7 810 504.7C840 496.7 870 454.3 885 433.2L900 412L900 601L885 601C870 601 840 601 810 601C780 601 750 601 720 601C690 601 660 601 630 601C600 601 570 601 540 601C510 601 480 601 450 601C420 601 390 601 360 601C330 601 300 601 270 601C240 601 210 601 180 601C150 601 120 601 90 601C60 601 30 601 15 601L0 601Z" fill="#55ee78"></path><path d="M0 403L15 417.5C30 432 60 461 90 474.8C120 488.7 150 487.3 180 476.5C210 465.7 240 445.3 270 454.7C300 464 330 503 360 523.8C390 544.7 420 547.3 450 545.5C480 543.7 510 537.3 540 524.7C570 512 600 493 630 476C660 459 690 444 720 456C750 468 780 507 810 499.7C840 492.3 870 438.7 885 411.8L900 385L900 601L885 601C870 601 840 601 810 601C780 601 750 601 720 601C690 601 660 601 630 601C600 601 570 601 540 601C510 601 480 601 450 601C420 601 390 601 360 601C330 601 300 601 270 601C240 601 210 601 180 601C150 601 120 601 90 601C60 601 30 601 15 601L0 601Z" fill="#24e796"></path><path d="M0 448L15 445.2C30 442.3 60 436.7 90 435C120 433.3 150 435.7 180 445.5C210 455.3 240 472.7 270 469.8C300 467 330 444 360 450.7C390 457.3 420 493.7 450 513.5C480 533.3 510 536.7 540 534C570 531.3 600 522.7 630 501.7C660 480.7 690 447.3 720 452.7C750 458 780 502 810 508.7C840 515.3 870 484.7 885 469.3L900 454L900 601L885 601C870 601 840 601 810 601C780 601 750 601 720 601C690 601 660 601 630 601C600 601 570 601 540 601C510 601 480 601 450 601C420 601 390 601 360 601C330 601 300 601 270 601C240 601 210 601 180 601C150 601 120 601 90 601C60 601 30 601 15 601L0 601Z" fill="#00dead"></path><path d="M0 484L15 494.8C30 505.7 60 527.3 90 540.7C120 554 150 559 180 549C210 539 240 514 270 500.7C300 487.3 330 485.7 360 491.8C390 498 420 512 450 503.8C480 495.7 510 465.3 540 467.5C570 469.7 600 504.3 630 509.2C660 514 690 489 720 474.8C750 460.7 780 457.3 810 463C840 468.7 870 483.3 885 490.7L900 498L900 601L885 601C870 601 840 601 810 601C780 601 750 601 720 601C690 601 660 601 630 601C600 601 570 601 540 601C510 601 480 601 450 601C420 601 390 601 360 601C330 601 300 601 270 601C240 601 210 601 180 601C150 601 120 601 90 601C60 601 30 601 15 601L0 601Z" fill="#00d4bd"></path><path d="M0 467L15 472.7C30 478.3 60 489.7 90 494.8C120 500 150 499 180 502.8C210 506.7 240 515.3 270 516.2C300 517 330 510 360 511.7C390 513.3 420 523.7 450 521.7C480 519.7 510 505.3 540 505.8C570 506.3 600 521.7 630 517.7C660 513.7 690 490.3 720 493.8C750 497.3 780 527.7 810 526C840 524.3 870 490.7 885 473.8L900 457L900 601L885 601C870 601 840 601 810 601C780 601 750 601 720 601C690 601 660 601 630 601C600 601 570 601 540 601C510 601 480 601 450 601C420 601 390 601 360 601C330 601 300 601 270 601C240 601 210 601 180 601C150 601 120 601 90 601C60 601 30 601 15 601L0 601Z" fill="#00c9c7"></path><path d="M0 540L15 544.5C30 549 60 558 90 554.3C120 550.7 150 534.3 180 524.2C210 514 240 510 270 512.7C300 515.3 330 524.7 360 535.7C390 546.7 420 559.3 450 550.8C480 542.3 510 512.7 540 501.3C570 490 600 497 630 505C660 513 690 522 720 519.5C750 517 780 503 810 497.7C840 492.3 870 495.7 885 497.3L900 499L900 601L885 601C870 601 840 601 810 601C780 601 750 601 720 601C690 601 660 601 630 601C600 601 570 601 540 601C510 601 480 601 450 601C420 601 390 601 360 601C330 601 300 601 270 601C240 601 210 601 180 601C150 601 120 601 90 601C60 601 30 601 15 601L0 601Z" fill="#00bdcd"></path><path d="M0 558L15 553.8C30 549.7 60 541.3 90 539C120 536.7 150 540.3 180 542.7C210 545 240 546 270 551.5C300 557 330 567 360 571.3C390 575.7 420 574.3 450 566C480 557.7 510 542.3 540 543.8C570 545.3 600 563.7 630 561C660 558.3 690 534.7 720 533.7C750 532.7 780 554.3 810 562.8C840 571.3 870 566.7 885 564.3L900 562L900 601L885 601C870 601 840 601 810 601C780 601 750 601 720 601C690 601 660 601 630 601C600 601 570 601 540 601C510 601 480 601 450 601C420 601 390 601 360 601C330 601 300 601 270 601C240 601 210 601 180 601C150 601 120 601 90 601C60 601 30 601 15 601L0 601Z" fill="#00b1cf"></path><path d="M0 582L15 581.7C30 581.3 60 580.7 90 572.8C120 565 150 550 180 546.7C210 543.3 240 551.7 270 552.7C300 553.7 330 547.3 360 549.7C390 552 420 563 450 564.3C480 565.7 510 557.3 540 551.5C570 545.7 600 542.3 630 544.3C660 546.3 690 553.7 720 557C750 560.3 780 559.7 810 560.7C840 561.7 870 564.3 885 565.7L900 567L900 601L885 601C870 601 840 601 810 601C780 601 750 601 720 601C690 601 660 601 630 601C600 601 570 601 540 601C510 601 480 601 450 601C420 601 390 601 360 601C330 601 300 601 270 601C240 601 210 601 180 601C150 601 120 601 90 601C60 601 30 601 15 601L0 601Z" fill="#00a3cd"></path><path d="M0 577L15 580C30 583 60 589 90 588.2C120 587.3 150 579.7 180 575.2C210 570.7 240 569.3 270 572C300 574.7 330 581.3 360 579C390 576.7 420 565.3 450 565.5C480 565.7 510 577.3 540 581.8C570 586.3 600 583.7 630 578.7C660 573.7 690 566.3 720 561.8C750 557.3 780 555.7 810 561.8C840 568 870 582 885 589L900 596L900 601L885 601C870 601 840 601 810 601C780 601 750 601 720 601C690 601 660 601 630 601C600 601 570 601 540 601C510 601 480 601 450 601C420 601 390 601 360 601C330 601 300 601 270 601C240 601 210 601 180 601C150 601 120 601 90 601C60 601 30 601 15 601L0 601Z" fill="#2496c7"></path></svg>