<svg id="visual" viewBox="0 0 900 600" width="900" height="600" xmlns="http://www.w3.org/2000/svg" xmlns:xlink="http://www.w3.org/1999/xlink" version="1.1"><rect x="0" y="0" width="900" height="600" fill="#001220"></rect><path d="M0 358L15 357.8C30 357.7 60 357.3 90 366.8C120 376.3 150 395.7 180 401C210 406.3 240 397.7 270 406.5C300 415.3 330 441.7 360 442.7C390 443.7 420 419.3 450 418.2C480 417 510 439 540 438.3C570 437.7 600 414.3 630 407.8C660 401.3 690 411.7 720 432.8C750 454 780 486 810 493.5C840 501 870 484 885 475.5L900 467L900 601L885 601C870 601 840 601 810 601C780 601 750 601 720 601C690 601 660 601 630 601C600 601 570 601 540 601C510 601 480 601 450 601C420 601 390 601 360 601C330 601 300 601 270 601C240 601 210 601 180 601C150 601 120 601 90 601C60 601 30 601 15 601L0 601Z" fill="#aaf70f"></path><path d="M0 372L15 372C30 372 60 372 90 382.8C120 393.7 150 415.3 180 416.8C210 418.3 240 399.7 270 402.8C300 406 330 431 360 429.8C390 428.7 420 401.3 450 415.7C480 430 510 486 540 485.5C570 485 600 428 630 419.3C660 410.7 690 450.3 720 451.7C750 453 780 416 810 398.3C840 380.7 870 382.3 885 383.2L900 384L900 601L885 601C870 601 840 601 810 601C780 601 750 601 720 601C690 601 660 601 630 601C600 601 570 601 540 601C510 601 480 601 450 601C420 601 390 601 360 601C330 601 300 601 270 601C240 601 210 601 180 601C150 601 120 601 90 601C60 601 30 601 15 601L0 601Z" fill="#7ff452"></path><path d="M0 360L15 382C30 404 60 448 90 458.8C120 469.7 150 447.3 180 427.7C210 408 240 391 270 383.7C300 376.3 330 378.7 360 388.2C390 397.7 420 414.3 450 416.7C480 419 510 407 540 399.7C570 392.3 600 389.7 630 408C660 426.3 690 465.7 720 473.2C750 480.7 780 456.3 810 432.5C840 408.7 870 385.3 885 373.7L900 362L900 601L885 601C870 601 840 601 810 601C780 601 750 601 720 601C690 601 660 601 630 601C600 601 570 601 540 601C510 601 480 601 450 601C420 601 390 601 360 601C330 601 300 601 270 601C240 601 210 601 180 601C150 601 120 601 90 601C60 601 30 601 15 601L0 601Z" fill="#55ee78"></path><path d="M0 501L15 486C30 471 60 441 90 421.8C120 402.7 150 394.3 180 396.5C210 398.7 240 411.3 270 411.5C300 411.7 330 399.3 360 413.8C390 428.3 420 469.7 450 473.8C480 478 510 445 540 444C570 443 600 474 630 477.2C660 480.3 690 455.7 720 449.5C750 443.3 780 455.7 810 463.7C840 471.7 870 475.3 885 477.2L900 479L900 601L885 601C870 601 840 601 810 601C780 601 750 601 720 601C690 601 660 601 630 601C600 601 570 601 540 601C510 601 480 601 450 601C420 601 390 601 360 601C330 601 300 601 270 601C240 601 210 601 180 601C150 601 120 601 90 601C60 601 30 601 15 601L0 601Z" fill="#24e796"></path><path d="M0 461L15 458.5C30 456 60 451 90 444.8C120 438.7 150 431.3 180 427.8C210 424.3 240 424.7 270 433.2C300 441.7 330 458.3 360 466.2C390 474 420 473 450 483C480 493 510 514 540 508.7C570 503.3 600 471.7 630 456.5C660 441.3 690 442.7 720 445.7C750 448.7 780 453.3 810 464.5C840 475.7 870 493.3 885 502.2L900 511L900 601L885 601C870 601 840 601 810 601C780 601 750 601 720 601C690 601 660 601 630 601C600 601 570 601 540 601C510 601 480 601 450 601C420 601 390 601 360 601C330 601 300 601 270 601C240 601 210 601 180 601C150 601 120 601 90 601C60 601 30 601 15 601L0 601Z" fill="#00dead"></path><path d="M0 452L15 462C30 472 60 492 90 509.7C120 527.3 150 542.7 180 546.5C210 550.3 240 542.7 270 533.3C300 524 330 513 360 512.3C390 511.7 420 521.3 450 531.3C480 541.3 510 551.7 540 549.3C570 547 600 532 630 528.8C660 525.7 690 534.3 720 530.5C750 526.7 780 510.3 810 498.5C840 486.7 870 479.3 885 475.7L900 472L900 601L885 601C870 601 840 601 810 601C780 601 750 601 720 601C690 601 660 601 630 601C600 601 570 601 540 601C510 601 480 601 450 601C420 601 390 601 360 601C330 601 300 601 270 601C240 601 210 601 180 601C150 601 120 601 90 601C60 601 30 601 15 601L0 601Z" fill="#00d4bd"></path><path d="M0 566L15 564.3C30 562.7 60 559.3 90 560.3C120 561.3 150 566.7 180 567C210 567.3 240 562.7 270 557.5C300 552.3 330 546.7 360 535C390 523.3 420 505.7 450 507.7C480 509.7 510 531.3 540 541.7C570 552 600 551 630 534.8C660 518.7 690 487.3 720 485.2C750 483 780 510 810 522.2C840 534.3 870 531.7 885 530.3L900 529L900 601L885 601C870 601 840 601 810 601C780 601 750 601 720 601C690 601 660 601 630 601C600 601 570 601 540 601C510 601 480 601 450 601C420 601 390 601 360 601C330 601 300 601 270 601C240 601 210 601 180 601C150 601 120 601 90 601C60 601 30 601 15 601L0 601Z" fill="#00c9c7"></path><path d="M0 540L15 542.7C30 545.3 60 550.7 90 546C120 541.3 150 526.7 180 523.8C210 521 240 530 270 536.2C300 542.3 330 545.7 360 543.5C390 541.3 420 533.7 450 534.8C480 536 510 546 540 544C570 542 600 528 630 527.7C660 527.3 690 540.7 720 549.7C750 558.7 780 563.3 810 559.5C840 555.7 870 543.3 885 537.2L900 531L900 601L885 601C870 601 840 601 810 601C780 601 750 601 720 601C690 601 660 601 630 601C600 601 570 601 540 601C510 601 480 601 450 601C420 601 390 601 360 601C330 601 300 601 270 601C240 601 210 601 180 601C150 601 120 601 90 601C60 601 30 601 15 601L0 601Z" fill="#00bdcd"></path><path d="M0 580L15 576.3C30 572.7 60 565.3 90 557C120 548.7 150 539.3 180 535.7C210 532 240 534 270 536.2C300 538.3 330 540.7 360 541.7C390 542.7 420 542.3 450 541.5C480 540.7 510 539.3 540 540.5C570 541.7 600 545.3 630 551C660 556.7 690 564.3 720 568.2C750 572 780 572 810 569.8C840 567.7 870 563.3 885 561.2L900 559L900 601L885 601C870 601 840 601 810 601C780 601 750 601 720 601C690 601 660 601 630 601C600 601 570 601 540 601C510 601 480 601 450 601C420 601 390 601 360 601C330 601 300 601 270 601C240 601 210 601 180 601C150 601 120 601 90 601C60 601 30 601 15 601L0 601Z" fill="#00b1cf"></path><path d="M0 537L15 536.8C30 536.7 60 536.3 90 541.7C120 547 150 558 180 566.5C210 575 240 581 270 581.5C300 582 330 577 360 575.3C390 573.7 420 575.3 450 572.8C480 570.3 510 563.7 540 559.5C570 555.3 600 553.7 630 550.8C660 548 690 544 720 541.8C750 539.7 780 539.3 810 538.7C840 538 870 537 885 536.5L900 536L900 601L885 601C870 601 840 601 810 601C780 601 750 601 720 601C690 601 660 601 630 601C600 601 570 601 540 601C510 601 480 601 450 601C420 601 390 601 360 601C330 601 300 601 270 601C240 601 210 601 180 601C150 601 120 601 90 601C60 601 30 601 15 601L0 601Z" fill="#00a3cd"></path><path d="M0 559L15 558.5C30 558 60 557 90 563C120 569 150 582 180 581.8C210 581.7 240 568.3 270 567.8C300 567.3 330 579.7 360 582.7C390 585.7 420 579.3 450 579.8C480 580.3 510 587.7 540 589.7C570 591.7 600 588.3 630 587.5C660 586.7 690 588.3 720 584.3C750 580.3 780 570.7 810 569C840 567.3 870 573.7 885 576.8L900 580L900 601L885 601C870 601 840 601 810 601C780 601 750 601 720 601C690 601 660 601 630 601C600 601 570 601 540 601C510 601 480 601 450 601C420 601 390 601 360 601C330 601 300 601 270 601C240 601 210 601 180 601C150 601 120 601 90 601C60 601 30 601 15 601L0 601Z" fill="#2496c7"></path></svg>